# xmcd CD database file generated by Grip 3.0.1
# 
# Track frame offsets:
#       150
#       17367
#       37702
#       56662
#       73132
#       90552
#       114925
#       134440
#       149310
#       164680
# 
# Disc length: 2429 seconds
# 
# Revision: 2
# Processed by: cddbd v1.4PL0 Copyright (c) Steve Scherf et al.
# Submitted via: Grip 3.0.1
# 
DISCID=81097b0a
DTITLE=Curtis Salgado - Wiggle Outta This
DYEAR=1999
DGENRE=Blues
TTITLE0=That's All a Part of Lovin' You
TTITLE1=Wiggle Outta This
TTITLE2=I Want Everyone To Know
TTITLE3=I Feel So Good
TTITLE4=Why Don't I Care
TTITLE5=Sorry Don't Mean Nuthin'
TTITLE6=Sing My Song
TTITLE7=Cookie Dough
TTITLE8=Deneath the Silver Moon
TTITLE9=Sweet Jesus Buddha the Doctor
EXTD=ID3G:   0
EXTT0=
EXTT1=
EXTT2=
EXTT3=
EXTT4=
EXTT5=
EXTT6=
EXTT7=
EXTT8=
EXTT9=
PLAYORDER=
